<svg width="8" height="21" viewBox="0 0 8 21" fill="none" xmlns="http://www.w3.org/2000/svg">
<mask id="path-1-outside-1_12_17" maskUnits="userSpaceOnUse" x="-1" y="-1" width="10" height="23" fill="black">
<rect fill="white" x="-1" y="-1" width="10" height="23"/>
<path d="M7.75923 0.636363V21H5.29332V3.22159H5.17401L0.202415 6.52273V4.01704L5.29332 0.636363H7.75923Z"/>
</mask>
<path d="M7.75923 0.636363V21H5.29332V3.22159H5.17401L0.202415 6.52273V4.01704L5.29332 0.636363H7.75923Z" fill="#B1B9D8"/>
<path d="M7.75923 0.636363H8.75923V-0.363637H7.75923V0.636363ZM7.75923 21V22H8.75923V21H7.75923ZM5.29332 21H4.29332V22H5.29332V21ZM5.29332 3.22159H6.29332V2.22159H5.29332V3.22159ZM5.17401 3.22159V2.22159H4.87224L4.62084 2.38852L5.17401 3.22159ZM0.202415 6.52273H-0.797585V8.3871L0.755576 7.3558L0.202415 6.52273ZM0.202415 4.01704L-0.350783 3.18399L-0.797585 3.4807V4.01704H0.202415ZM5.29332 0.636363V-0.363637H4.99153L4.74013 -0.196687L5.29332 0.636363ZM6.75923 0.636363V21H8.75923V0.636363H6.75923ZM7.75923 20H5.29332V22H7.75923V20ZM6.29332 21V3.22159H4.29332V21H6.29332ZM5.29332 2.22159H5.17401V4.22159H5.29332V2.22159ZM4.62084 2.38852L-0.350746 5.68965L0.755576 7.3558L5.72717 4.05466L4.62084 2.38852ZM1.20241 6.52273V4.01704H-0.797585V6.52273H1.20241ZM0.755612 4.85009L5.84652 1.46941L4.74013 -0.196687L-0.350783 3.18399L0.755612 4.85009ZM5.29332 1.63636H7.75923V-0.363637H5.29332V1.63636Z" fill="#2E3650" mask="url(#path-1-outside-1_12_17)"/>
</svg>
